<svg width="512" height="512" viewBox="0 0 512 512" fill="none" xmlns="http://www.w3.org/2000/svg">
<path d="M113.468 143.04C104.492 143.04 98.0678 144.448 94.1958 147.264C90.3238 149.904 88.3878 154.48 88.3878 160.992V224.088C88.3878 233.064 86.8038 239.576 83.6358 243.624C80.4678 247.496 75.4518 250.576 68.5878 252.864C75.6278 255.328 80.6438 258.408 83.6358 262.104C86.8038 265.8 88.3878 272.136 88.3878 281.112V344.208C88.3878 350.72 90.3238 355.296 94.1958 357.936C98.0678 360.752 104.492 362.16 113.468 362.16V380.904C95.8678 380.904 83.4598 377.824 76.2438 371.664C69.0278 365.68 65.4198 355.648 65.4198 341.568V282.96C65.4198 275.568 64.0118 270.376 61.1958 267.384C58.5558 264.392 53.8038 262.896 46.9398 262.896V242.832C53.8038 242.832 58.5558 241.248 61.1958 238.08C64.0118 234.912 65.4198 229.632 65.4198 222.24V163.632C65.4198 149.552 69.0278 139.52 76.2438 133.536C83.4598 127.376 95.8678 124.296 113.468 124.296V143.04ZM214.65 201.648C219.754 201.648 224.418 202.264 228.642 203.496L222.834 236.232C218.61 235.176 214.474 234.648 210.426 234.648C202.154 234.648 195.642 237.64 190.89 243.624C186.138 249.432 182.354 258.408 179.538 270.552V345H145.746V205.344H175.05L178.218 232.8C181.562 222.768 186.402 215.112 192.738 209.832C199.074 204.376 206.378 201.648 214.65 201.648ZM321.98 201.384C338.172 201.384 350.844 207.896 359.996 220.92C369.148 233.768 373.724 251.808 373.724 275.04C373.724 289.472 371.436 302.32 366.86 313.584C362.46 324.672 356.124 333.384 347.852 339.72C339.58 345.88 329.812 348.96 318.548 348.96C310.98 348.96 304.028 347.376 297.692 344.208C291.532 341.04 286.164 336.552 281.588 330.744L279.476 345H249.644V149.376L283.436 145.68V221.184C288.012 214.848 293.556 210.008 300.068 206.664C306.756 203.144 314.06 201.384 321.98 201.384ZM309.308 323.616C318.46 323.616 325.588 319.744 330.692 312C335.796 304.08 338.348 291.76 338.348 275.04C338.348 257.44 335.972 245.032 331.22 237.816C326.468 230.424 319.78 226.728 311.156 226.728C300.42 226.728 291.18 233.064 283.436 245.736V307.512C286.428 312.616 290.124 316.576 294.524 319.392C299.1 322.208 304.028 323.616 309.308 323.616ZM398.462 124.296C416.062 124.296 428.47 127.376 435.686 133.536C442.902 139.52 446.51 149.552 446.51 163.632V222.24C446.51 229.632 447.83 234.912 450.47 238.08C453.286 241.248 458.126 242.832 464.99 242.832V262.896C458.126 262.896 453.286 264.392 450.47 267.384C447.83 270.376 446.51 275.568 446.51 282.96V341.568C446.51 355.648 442.902 365.68 435.686 371.664C428.47 377.824 416.062 380.904 398.462 380.904V362.16C407.438 362.16 413.862 360.752 417.734 357.936C421.606 355.296 423.542 350.72 423.542 344.208V281.112C423.542 272.136 425.038 265.8 428.03 262.104C431.198 258.408 436.302 255.328 443.342 252.864C436.478 250.576 431.462 247.496 428.294 243.624C425.126 239.576 423.542 233.064 423.542 224.088V160.992C423.542 154.48 421.606 149.904 417.734 147.264C413.862 144.448 407.438 143.04 398.462 143.04V124.296Z" fill="#2EB88A"/>
</svg>
